<svg width="25" height="24" viewBox="0 0 25 24" fill="none" xmlns="http://www.w3.org/2000/svg">
<g clip-path="url(#clip0)">
<path fill-rule="evenodd" clip-rule="evenodd" d="M2.22473 11.8008C2.33402 11.9896 2.47891 12.2303 2.6584 12.5083C3.11942 13.2221 3.80215 14.1714 4.68852 15.1168C6.4795 17.0272 8.98349 18.8008 12.084 18.8008C15.1845 18.8008 17.6885 17.0272 19.4794 15.1168C20.3658 14.1714 21.0485 13.2221 21.5096 12.5083C21.6891 12.2303 21.834 11.9896 21.9432 11.8008C21.834 11.6119 21.6891 11.3712 21.5096 11.0933C21.0485 10.3795 20.3658 9.43019 19.4794 8.48472C17.6885 6.57434 15.1845 4.80078 12.084 4.80078C8.98349 4.80078 6.4795 6.57434 4.68852 8.48472C3.80215 9.43019 3.11942 10.3795 2.6584 11.0933C2.47891 11.3712 2.33402 11.6119 2.22473 11.8008ZM23.084 11.8008C23.9784 11.3536 23.9782 11.3532 23.9781 11.3529L23.9764 11.3497L23.973 11.3428L23.9616 11.3206C23.9521 11.3021 23.9386 11.2761 23.9212 11.2432C23.8864 11.1775 23.836 11.084 23.77 10.9668C23.6382 10.7324 23.4441 10.4023 23.1896 10.0083C22.6819 9.22209 21.9272 8.17138 20.9385 7.11684C18.9795 5.02722 15.9835 2.80078 12.084 2.80078C8.18448 2.80078 5.18847 5.02722 3.22945 7.11684C2.24082 8.17138 1.48605 9.22209 0.97832 10.0083C0.723834 10.4023 0.529776 10.7324 0.397956 10.9668C0.332008 11.084 0.281524 11.1775 0.246738 11.2432C0.229341 11.2761 0.21586 11.3021 0.206322 11.3206L0.194974 11.3428L0.191523 11.3497L0.190354 11.352C0.190171 11.3523 0.189557 11.3536 1.08398 11.8008L0.189557 11.3536C0.0487934 11.6351 0.0487934 11.9665 0.189557 12.248L1.08398 11.8008C0.189557 12.248 0.189373 12.2476 0.189557 12.248L0.191523 12.2519L0.194974 12.2587L0.206322 12.281C0.21586 12.2995 0.229341 12.3255 0.246738 12.3583C0.281524 12.4241 0.332008 12.5176 0.397956 12.6348C0.529776 12.8691 0.723834 13.1993 0.97832 13.5933C1.48605 14.3795 2.24082 15.4302 3.22945 16.4847C5.18847 18.5743 8.18448 20.8008 12.084 20.8008C15.9835 20.8008 18.9795 18.5743 20.9385 16.4847C21.9272 15.4302 22.6819 14.3795 23.1896 13.5933C23.4441 13.1993 23.6382 12.8691 23.77 12.6348C23.836 12.5176 23.8864 12.4241 23.9212 12.3583C23.9386 12.3255 23.9521 12.2995 23.9616 12.281L23.973 12.2587L23.9764 12.2519L23.9776 12.2496C23.9778 12.2492 23.9784 12.248 23.084 11.8008ZM23.084 11.8008L23.9784 12.248C24.1192 11.9665 24.1188 11.6344 23.9781 11.3529L23.084 11.8008ZM12.084 9.00098C10.4271 9.00098 9.08398 10.3441 9.08398 12.001C9.08398 13.6578 10.4271 15.001 12.084 15.001C13.7408 15.001 15.084 13.6578 15.084 12.001C15.084 10.3441 13.7408 9.00098 12.084 9.00098ZM7.08398 12.001C7.08398 9.23955 9.32256 7.00098 12.084 7.00098C14.8454 7.00098 17.084 9.23955 17.084 12.001C17.084 14.7624 14.8454 17.001 12.084 17.001C9.32256 17.001 7.08398 14.7624 7.08398 12.001Z" fill="currentColor"/>
</g>
<defs>
<clipPath id="clip0">
<rect width="24" height="24" fill="white" transform="translate(0.0839844)"/>
</clipPath>
</defs>
</svg>
