<svg width="25" height="24" viewBox="0 0 25 24" fill="none" xmlns="http://www.w3.org/2000/svg">
<g clip-path="url(#clip0)">
<path fill-rule="evenodd" clip-rule="evenodd" d="M0.674797 0.0926979C1.06532 -0.297826 1.69849 -0.297826 2.08901 0.0926979L6.44935 4.45304C8.0341 3.48553 9.91994 2.7998 12.0841 2.7998C15.9836 2.7998 18.9796 5.02624 20.9386 7.11586C21.9272 8.1704 22.682 9.22112 23.1897 10.0073C23.4442 10.4013 23.6383 10.7314 23.7701 10.9658C23.836 11.083 23.8865 11.1765 23.9213 11.2422C23.9387 11.2751 23.9522 11.3011 23.9617 11.3196L23.9731 11.3418L23.9765 11.3487L23.9777 11.351C23.9779 11.3514 23.9785 11.3526 23.0841 11.7998C23.9785 12.247 23.9783 12.2474 23.9781 12.2477L23.9765 12.2509L23.9731 12.2578L23.9617 12.28C23.9522 12.2985 23.9387 12.3245 23.9213 12.3574C23.8865 12.4231 23.836 12.5166 23.7701 12.6338C23.6383 12.8682 23.4442 13.1983 23.1897 13.5923C22.682 14.3785 21.9272 15.4292 20.9386 16.4837C20.5603 16.8872 20.1434 17.2958 19.6888 17.6925L24.089 22.0927C24.4795 22.4832 24.4795 23.1164 24.089 23.5069C23.6985 23.8974 23.0653 23.8974 22.6748 23.5069L18.0835 18.9156C16.426 20.0031 14.4167 20.7998 12.0841 20.7998C8.18455 20.7998 5.18853 18.5734 3.22952 16.4837C2.24089 15.4292 1.48612 14.3785 0.978388 13.5923C0.723903 13.1983 0.529845 12.8682 0.398024 12.6338C0.332076 12.5166 0.281593 12.4231 0.246806 12.3574C0.229409 12.3245 0.215928 12.2985 0.206391 12.28L0.195043 12.2578L0.191592 12.2509L0.190423 12.2486C0.190239 12.2482 0.189625 12.247 1.08405 11.7998C0.189625 11.3526 0.189794 11.3523 0.189978 11.3519L0.191592 11.3487L0.195043 11.3418L0.206391 11.3196C0.215928 11.3011 0.229409 11.2751 0.246806 11.2422C0.281593 11.1765 0.332076 11.083 0.398024 10.9658C0.529845 10.7314 0.723903 10.4013 0.978388 10.0073C1.48612 9.22112 2.24089 8.1704 3.22952 7.11586C3.69543 6.61889 4.21999 6.11418 4.80141 5.63353L0.674797 1.50691C0.284273 1.11639 0.284273 0.483222 0.674797 0.0926979ZM6.22253 7.05464C5.66469 7.50283 5.1527 7.9887 4.68859 8.48375C3.80222 9.42921 3.11949 10.3785 2.65847 11.0923C2.47898 11.3703 2.33409 11.6109 2.22479 11.7998C2.33409 11.9887 2.47898 12.2294 2.65847 12.5073C3.11949 13.2211 3.80222 14.1704 4.68859 15.1159C6.47957 17.0262 8.98356 18.7998 12.0841 18.7998C13.787 18.7998 15.31 18.2648 16.6338 17.4659L15.1319 15.964C14.2882 16.6137 13.2312 17 12.0841 17C9.32263 17 7.08405 14.7614 7.08405 12C7.08405 10.8528 7.47039 9.79587 8.12006 8.95217L6.22253 7.05464ZM9.55443 10.3865C9.25665 10.8524 9.08405 11.4061 9.08405 12C9.08405 13.6569 10.4272 15 12.0841 15C12.678 15 13.2316 14.8274 13.6975 14.5296L9.55443 10.3865ZM14.9345 12.9381L11.1459 9.1496C11.4411 9.05252 11.7564 9 12.0841 9C13.7409 9 15.0841 10.3431 15.0841 12C15.0841 12.3276 15.0315 12.643 14.9345 12.9381ZM16.4446 14.4483C16.8518 13.7247 17.0841 12.8895 17.0841 12C17.0841 9.23858 14.8455 7 12.0841 7C11.1946 7 10.3594 7.23225 9.63574 7.63942L7.91231 5.916C9.14556 5.23913 10.5409 4.7998 12.0841 4.7998C15.1845 4.7998 17.6885 6.57337 19.4795 8.48375C20.3659 9.42921 21.0486 10.3785 21.5096 11.0923C21.6891 11.3703 21.834 11.6109 21.9433 11.7998C21.834 11.9887 21.6891 12.2294 21.5096 12.5073C21.0486 13.2211 20.3659 14.1704 19.4795 15.1159C19.1072 15.513 18.7041 15.9042 18.2712 16.2748L16.4446 14.4483ZM1.08405 11.7998L0.189978 11.3519C0.0492138 11.6334 0.0488617 11.9655 0.189625 12.247L1.08405 11.7998ZM23.0841 11.7998L23.9781 12.2477C24.1189 11.9662 24.1192 11.6341 23.9785 11.3526L23.0841 11.7998Z" fill="currentColor"/>
</g>
<defs>
<clipPath id="clip0">
<rect width="24" height="24" fill="white" transform="translate(0.0839844)"/>
</clipPath>
</defs>
</svg>
