<svg xmlns="http://www.w3.org/2000/svg" xmlns:xlink="http://www.w3.org/1999/xlink" width="20" height="20"
  viewBox="0 0 20 20">
  <defs>
    <filter id="94z02ed7ea">
      <feColorMatrix in="SourceGraphic" values="0 0 0 0 0.800000 0 0 0 0 0.000000 0 0 0 0 0.000000 0 0 0 1.000000 0" />
    </filter>
    <path id="qgspj0ntcb"
      d="M14.41 4.41c.326-.325.854-.325 1.18 0 .325.326.325.854 0 1.18L11.177 10l4.411 4.41c.299.3.323.767.075 1.094l-.075.085c-.325.326-.853.326-1.178 0L10 11.178l-4.41 4.411c-.3.299-.767.323-1.094.075l-.085-.075c-.326-.325-.326-.853 0-1.178L8.82 10l-4.41-4.41c-.299-.3-.323-.767-.075-1.094l.075-.085c.325-.326.853-.326 1.178 0L10 8.82z" />
  </defs>
  <g fill="none" fill-rule="evenodd">
    <g>
      <g>
        <g filter="url(#94z02ed7ea)"
          transform="translate(-19.000000, -380.000000) translate(16.000000, 268.000000) translate(0.000000, 112.000000)">
          <g transform="translate(3.000000, 0.000000)">
            <mask id="m2hy0kybbc" fill="#fff">
              <use xlink:href="#qgspj0ntcb" />
            </mask>
            <use fill="currentColor" fill-rule="nonzero" xlink:href="#qgspj0ntcb" />
            <g fill="currentColor" mask="url(#m2hy0kybbc)">
              <path d="M0 0H20V20H0z" />
            </g>
          </g>
        </g>
      </g>
    </g>
  </g>
</svg>